<svg xmlns="http://www.w3.org/2000/svg" width="134" height="36" viewBox="0 0 134 36"><g><g><g><g><path fill="#e42229" d="M20.412 35.9l113.536-.024L.771 0c5.79 4.488 11.292 6.21 18.117 10.214 1.378.808 3.303 1.865 5.11 3.063 3.83 2.534 7.649 5.737 8.26 8.899.38 1.98.33 3.21-.494 5.112-1.362 3.172-4.349 5.685-7.233 6.89L20.412 35.9z"/></g><g><path fill="#1d1d1b" d="M51.675 13.935l.594 5.066h-3.23zM48.602 3.933l-13.776 25.07h7.662l.602-1.176h1.365l1.172-2.255h7.065l.584 3.437 7.656-.006-.201-1.169h2.084L58.561 2.986h-8.024l-.515.947z"/></g><g><path fill="#1d1d1b" d="M72.282 4.838l-.076.04-.343.172-.337.18-.338.194-.329.206-.332.21-.327.227-.324.235-.309.251-.228.178-.214.186-.204.19-.214.192-.204.204-.204.204-.202.211-.198.225-.201.223-.189.232-.196.236-.19.25-.179.252-.186.261-.172.264-.173.27-.17.28-.162.29-.162.29-.154.303-.15.314-.146.317-.141.324-.136.332-.136.337-.12.346-.12.358-.118.36-.115.372-.1.384-.099.39-.091.392-.081.421-.084.416-.066.424-.047.423-.054.421-.037.416-.026.419-.016.415-.008.419.008.413.016.413.02.408.04.4.044.4.058.393.065.394.079.388.089.381.1.372.111.368.124.359.128.355.148.343.152.33.168.329.175.319.19.308.207.299.212.29.228.272.243.261.24.251.186.17.191.16.193.151.202.15.199.143.217.136.209.134.22.125.224.118.23.11.233.107.244.1.245.096.233.086.254.084.258.081.265.063.266.068.27.06.272.052.28.047.282.047.295.04.288.028.296.024.3.026.312.021h.298l.319.016h.321l.327-.01.327-.006.507-.031.508-.047.497-.06.496-.087.495-.102.486-.112.468-.139.476-.157.465-.164.458-.184.453-.2.434-.22.439-.236.421-.251.419-.261.402-.272.4-.296.382-.316.369-.314.366-.335.345-.348.047-.06.338-.267.368-.31.356-.34.343-.338.329-.358.316-.364.306-.382.296-.4.277-.405.267-.413.259-.43.24-.444.217-.447.204-.455.568-1.39h-7.134l-.238.467-.042.086-.042.087-.047.086-.047.084-.047.086-.05.078-.052.087-.045.083-.054.081-.053.071-.057.094-.052.07-.043.08-.062.073-.047.075-.09.118-.083.11-.086.112-.089.102-.097.102-.091.097-.1.097-.107.091-.102.09-.1.083-.114.08-.113.08-.112.075-.115.07-.126.071-.12.066-.13.06-.129.063-.136.05-.139.052-.138.047-.146.047-.145.034-.154.04-.146.03-.162.024-.165.026-.165.021-.17.016-.175.008-.17.005-.183.008-.272-.013-.246-.016-.232-.045-.215-.05-.201-.062-.191-.073-.173-.092-.167-.102-.157-.117-.152-.126-.128-.133-.141-.157-.123-.175-.115-.18-.107-.197-.105-.225-.083-.225-.095-.253-.07-.26-.068-.271-.063-.293-.05-.303-.039-.325-.037-.327-.028-.345-.016-.353-.003-.371v-.382l.013-.39.016-.405.021-.413.034-.416.052-.416.055-.39.074-.389.086-.38.104-.365.113-.361.13-.345.137-.343.149-.327.16-.314.17-.308.177-.293.19-.28.197-.27.201-.258.21-.243.211-.225.228-.217.128-.12.128-.053.243-.089.236-.063.23-.057.227-.04.233-.02.225-.008h.141l.134.008.143.01.129.019.122.018.12.034.124.029.115.031.115.04.115.038.102.05.107.055.102.058.102.06.1.065.101.076.095.068.094.078.096.084.094.086.087.095.096.102.09.102.094.104.086.11.081.115.091.128.079.126.086.13.081.129.09.136.07.136.005.007.005.01.019.032.12.33h7.128l-.08-1.083h1.432l-.073-1.13-.05-.407-.052-.406-.078-.392-.1-.385-.102-.37-.125-.364-.144-.356-.152-.343-.172-.334-.186-.32-.199-.305-.206-.298-.236-.283-.248-.272-.25-.264-.273-.246-.28-.233-.3-.22-.309-.206-.324-.188-.322-.178-.35-.165-.346-.149-.369-.133-.363-.118-.39-.107-.394-.089-.403-.08-.408-.061-.426-.044-.429-.034-.309-.006-.295-.002h-.301l-.314.008-.306.01-.319.02-.319.022-.321.026-.322.037-.327.039-.33.05-.329.054-.337.06-.335.074-.334.07-.333.092-.345.094-.337.097-.338.115-.34.112-.34.134-.334.14-.335.15-.335.149-.332.167-.332.189-.33.185-.324.202-.3.188z"/></g><g><path fill="#1d1d1b" d="M97.679 4.812l-.108.052-.266.146-.262.142-.27.157-.248.167-.248.17-.254.173-.293.224-.28.246-.264.264-.266.275-.243.29-.228.306-.217.314-.201.332-.189.332-.172.348-.152.358-.144.364-.115.366-.102.376-.08.385-.06.384-.035.387-.02.387.002.387.029.395.052.387.084.39.107.38.13.373.165.377.191.358.228.35.243.343.28.324.31.32.346.29.369.274.068.047.068.047.07.042.081.042.084.042.084.039.089.047.088.052.1.047.107.05.107.044.115.055.118.047.115.06.13.056.13.054.132.058.131.06.15.06.138.06.151.063.155.055.149.068.162.063.157.057.165.068.164.066.162.062.17.071.173.066.175.067.18.071.178.06.176.07.167.064.175.062.173.055.175.063.173.063.17.06.17.057.17.058.162.06.172.055.165.06.16.058.16.055.161.062.162.055.157.058.152.055.154.06.157.057.141.06.144.069.144.057.141.063.142.063.13.07.134.066.13.068.123.065.12.07.113.069.084.06.063.052.065.058.05.057.044.063.04.063.033.073.032.068.023.073.018.076.013.084.006.08v.095l-.006.086-.007.086-.008.094-.024.095-.039.102-.042.11-.047.112-.063.123-.052.084-.12.039-.215.055-.214.047-.222.047-.233.04-.228.033-.232.029-.228.023-.222.019-.217.005h-.202l-.198-.005-.176-.016-.172-.018-.17-.032-.157-.031-.154-.037-.15-.041-.156-.048-.131-.057-.141-.058-.134-.07-.117-.071-.12-.065-.113-.084-.112-.086-.103-.087-.104-.094-.089-.096-.091-.102-.079-.108-.078-.11-.076-.12-.068-.12-.063-.13-.06-.134-.055-.139-.047-.138-.034-.152-.042-.154-.023-.16-.024-.165-.018-.172-.008-.175-.024-.874h-7.018l-.1.892-.02.225h-1.62l-.096.9-.024.271-.018.264-.016.264-.005.249v.251l.005.248.013.233.006.233.026.227.029.217.034.217.039.212.047.207.05.201.05.191.065.196.057.186.073.183.082.175.08.175.087.168.097.162.091.167.1.155.11.151.104.152.115.144.115.146.118.134.117.138.134.136.183.183.193.18.194.173.21.157.206.157.217.141.217.15.227.133.222.123.228.12.238.107.24.115.246.094.244.097.25.086.252.079.25.083.265.071.259.073.266.06.265.058.26.052.268.052.272.05.272.042.272.04.271.036.283.031.27.03.284.028.28.018.267.029.204.008.206.013.21.002h.421l.22-.01.222-.008.227-.008.233-.026.233-.018.235-.029.233-.029.24-.031.246-.042.238-.042.248-.047.249-.05.246-.06.253-.06.257-.065.253-.07.244-.074.258-.076.251-.08.246-.085.251-.096.249-.097.246-.105.248-.104.254-.115.245-.118.236-.123.167-.091.175-.092.162-.092.168-.102.16-.096.164-.107.162-.11.157-.113.16-.107.151-.113.152-.117.144-.115.152-.133.151-.118.139-.134.141-.125.134-.136.138-.13.026-.027.045-.031.146-.115.152-.118.144-.118.14-.12.145-.128.143-.118.136-.133.134-.128.128-.134.136-.138.125-.136.126-.142.118-.146.115-.139.118-.154.112-.144.102-.154.11-.154.094-.157.102-.152.096-.167.087-.157.08-.162.095-.191.091-.16.071-.162.076-.165.073-.156.052-.183.069-.194.055-.214.078-.272.063-.275.057-.28.052-.282.05-.285.037-.29.023-.296.01-.298V18.3l-.025-.304-.045-.311-.068-.304-.073-.316-.105-.303-.123-.309-.138-.3-.175-.304-.186-.293-.222-.288-.236-.285-.266-.285-.298-.27-.314-.26-.346-.262-.376-.243-.403-.246-.426-.233-.46-.23-.497-.217-.523-.212-.562-.204-.1-.031-.094-.03-.102-.033-.1-.031-.11-.032-.109-.031-.107-.031-.12-.034-.116-.027-.122-.036-.12-.026-.131-.034-.126-.032-.13-.036-.129-.032-.13-.042-.14-.033-.13-.034-.152-.04-.261-.073-.136-.037-.139-.041-.133-.04-.139-.042-.144-.041-.123-.034-.143-.045-.13-.05-.13-.039-.138-.052-.138-.042-.144-.06-.16-.05-.143-.052-.147-.055-.144-.055-.13-.047-.131-.047-.118-.055-.118-.05-.102-.044-.099-.047-.078-.047-.074-.047-.065-.042-.044-.042-.045-.034-.06-.07-.068-.071-.052-.073-.058-.074-.042-.08-.034-.071-.031-.079-.024-.07-.026-.087-.008-.078-.013-.078v-.084l.008-.079.005-.088.024-.092.026-.092.05-.13.008-.024h.015l.24-.063.25-.041.255-.03.265-.02h.264l.29.015.272.03.282.046.27.066.248.086.238.1.228.107.206.136.191.143.16.17.143.18.131.205.108.22.088.253.058.285.115.968h6.807l.06-.808.01-.186.011-.044h1.208l.058-.806.015-.178.019-.185.002-.186.008-.204v-.824l-.01-.22-.029-.216-.013-.223-.04-.222-.033-.222-.05-.228-.052-.227-.068-.228-.074-.227-.088-.225-.092-.223-.11-.224-.118-.22-.133-.215-.157-.211-.16-.207-.172-.206-.188-.197-.202-.18-.214-.186-.24-.172-.249-.16-.261-.154-.165-.089-.157-.079-.165-.078-.154-.078-.165-.055-.157-.076-.157-.055-.16-.058-.164-.054-.16-.053-.162-.047-.16-.047-.161-.04-.162-.03-.155-.042-.162-.03-.162-.03-.165-.037-.16-.021-.161-.029-.16-.015-.167-.024-.152-.016-.165-.016-.162-.023-.157-.01-.17-.021-.157-.008-.164-.018-.163-.008-.167-.008-.165-.018-.3-.014-.304-.015-.3-.005h-.306l-.304.01-.3.01-.301.019-.304.023-.298.032-.298.031-.303.045-.3.05-.299.049-.29.06-.29.063-.293.07-.288.079-.288.091-.287.09-.283.093-.277.108-.285.104-.27.118-.274.118-.267.133-.266.13-.262.147-.259.147-.25.149-.252.162-.253.165-.212.154z"/></g><g><path fill="#fff" d="M54.586 19.68l-1.478-9.952-5.178 9.953zm7.424 7.48zm0 0h-6.25l-.56-3.379-.01-.031h-9.378l-1.765 3.41H37.98L50.94 3.669h7.05zM81.704 3.036c4.367.249 7.162 2.884 7.374 7.137H83.28s-.003-.016-.008-.03c-.908-1.615-2.03-2.638-3.81-2.638-2.806 0-6.138 3.164-6.543 7.835-.41 4.673.515 7.834 3.862 7.834 2.129 0 3.669-.87 4.652-2.256.293-.427.594-.902.845-1.41h5.711c-1.872 4.83-6.328 8.018-11.404 8.206-3.345.12-5.881-.578-7.591-2.207-2.417-2.29-3.11-6.765-2.182-10.99.895-4.067 2.78-6.687 4.925-8.432 3.143-2.547 6.961-3.15 9.966-3.049zm26.778 7.063c-.12-2.133-1.854-2.957-3.557-2.98-1.585-.035-3.117.632-3.483 1.788-.24.764.008 1.454.53 1.972.388.387 1.164.63 1.99.925 1.444.518 3.144.871 4.023 1.17 5.917 2.06 5.8 5.29 5.065 8.03-.152.565-.256.764-.526 1.287-.82 1.605-2.272 2.939-3.95 3.825-2.383 1.253-5.2 1.695-7.088 1.554-2.863-.22-5.572-.803-7.295-2.618-1.222-1.279-1.857-2.84-1.528-5.722h5.759c0 2.25 1.378 3.716 3.501 3.926 1.083.101 2.727-.155 3.648-.607.711-.345 1.347-1.284 1.504-2.006.151-.719-.074-1.464-.743-1.885-1.357-.855-3.187-1.324-4.971-2.014-1.839-.714-3.395-1.373-3.844-1.689-3.64-2.555-2.267-7.607.533-9.665 2.4-1.773 5.563-2.51 8.653-2.307 1.732.115 3.322.272 4.872 1.127 2.586 1.425 2.495 4.114 2.354 5.89h-5.447z"/></g></g></g></g></svg>