<?xml version="1.0" encoding="UTF-8"?>
<svg width="90px" height="30px" viewBox="0 0 90 30" version="1.1" xmlns="http://www.w3.org/2000/svg" xmlns:xlink="http://www.w3.org/1999/xlink">
    <title>SKROUTZ-LAST-MILE</title>
    <g id="Tracking-Page" stroke="none" stroke-width="1" fill="none" fill-rule="evenodd">
        <g id="Tracking-SendX---S---Cancelled" transform="translate(-24.000000, -18.000000)" fill-rule="nonzero">
            <g id="SKROUTZ-LAST-MILE" transform="translate(24.000000, 18.000000)">
                <path d="M43.6866873,4.40804954 C39.5628483,4.40804954 36.5879257,7.30495356 36.5879257,11.3498452 C36.5879257,15.3947368 39.5600619,18.2925697 43.6866873,18.2925697 C47.8133127,18.2925697 50.7854489,15.3956656 50.7854489,11.3498452 C50.7854489,7.30402477 47.8086687,4.40804954 43.6866873,4.40804954 Z M45.5052632,13.3708978 C44.973065,13.9160991 44.2226006,14.0303406 43.6866873,14.0303406 C42.7160991,14.0303406 42.1625387,13.6718266 41.8690402,13.3708978 C41.4167183,12.9065015 41.1780186,12.2099071 41.1780186,11.3498452 C41.1780186,10.4897833 41.4167183,9.79133127 41.8690402,9.32879257 C42.4003096,8.78452012 43.150774,8.67027864 43.6866873,8.67027864 C44.6572755,8.67027864 45.2117647,9.02879257 45.5043344,9.32879257 C45.9566563,9.79318885 46.195356,10.4897833 46.195356,11.3498452 C46.195356,12.2099071 45.9566563,12.9092879 45.5052632,13.3708978 Z" id="Shape" fill="#F68B24"></path>
                <path d="M88.7990712,6.97708978 L88.7990712,5.32569659 C88.7990712,5.03587534 88.5641247,4.80092879 88.2743034,4.80092879 L78.7662539,4.80092879 C78.4764326,4.80092879 78.2414861,5.03587534 78.2414861,5.32569659 L78.2414861,7.97182663 C78.2414861,8.26164788 78.4764326,8.49659443 78.7662539,8.49659443 L82.8241486,8.49659443 L79.2018576,13.0049536 C78.6147548,13.7861931 78.29728,14.7369877 78.2972136,15.7142415 L78.2972136,17.3767802 C78.2972136,17.6666014 78.5321602,17.901548 78.8219814,17.901548 L88.5390093,17.901548 C88.8288305,17.901548 89.0637771,17.6666014 89.0637771,17.3767802 L89.0637771,14.7390093 C89.0637771,14.449188 88.8288305,14.2142415 88.5390093,14.2142415 L84.3947368,14.2142415 L87.8832817,9.70495356 C88.4783188,8.92010953 88.7999721,7.96200015 88.7990712,6.97708978 Z" id="Path" fill="#F68B24"></path>
                <path d="M76.0337461,4.80092879 L74.198452,4.80092879 L74.198452,2.72879257 C74.198452,2.43897132 73.9635055,2.20402477 73.6736842,2.20402477 L69.7114551,2.20402477 C69.4216339,2.20402477 69.1866873,2.43897132 69.1866873,2.72879257 L69.1866873,4.80092879 L67.7071207,4.80092879 C67.4172995,4.80092879 67.1823529,5.03587534 67.1823529,5.32569659 L67.1823529,7.97182663 C67.1823529,8.26164788 67.4172995,8.49659443 67.7071207,8.49659443 L69.1866873,8.49659443 L69.1866873,14.1018576 C69.1866873,16.8882353 70.8139319,18.295356 73.7656347,18.295356 C74.601548,18.295356 75.7904025,18.0965944 76.2018576,17.9452012 C76.4144291,17.8724173 76.5575752,17.672982 76.5585139,17.4482972 L76.5585139,14.6386997 C76.5585139,14.2801858 76.2501548,14.0201238 75.9204334,14.1408669 C75.7006158,14.1792701 75.4784222,14.2025445 75.255418,14.2105263 C74.5058824,14.2105263 74.198452,13.7758514 74.198452,13.0857585 L74.198452,8.49287926 L76.0337461,8.49287926 C76.1729232,8.49287926 76.3063999,8.43759138 76.404813,8.33917833 C76.5032261,8.24076527 76.5585139,8.10728853 76.5585139,7.96811146 L76.5585139,5.32569659 C76.5585139,5.03587534 76.3235674,4.80092879 76.0337461,4.80092879 L76.0337461,4.80092879 Z" id="Path" fill="#F68B24"></path>
                <path d="M65.1696594,4.80092797 L61.2009288,4.80092797 C61.0615909,4.80068218 60.9278754,4.85586116 60.8292614,4.95430096 C60.7306473,5.05274075 60.675232,5.18635845 60.6752322,5.32569659 L60.6752322,13.0346749 C60.6083591,13.2260062 60.1987616,14.2040248 58.8399381,14.2040248 C57.6910217,14.2040248 57.1291022,13.5352941 57.1291022,11.9702786 L57.1291022,5.32569659 C57.1291024,5.18635845 57.073687,5.05274075 56.975073,4.95430096 C56.876459,4.85586116 56.7427435,4.80068218 56.6034056,4.80092797 L52.6383901,4.80092797 C52.3485688,4.80092797 52.1136223,5.03587534 52.1136223,5.32569659 L52.1136223,12.4773994 C52.1136223,16.1823529 53.8643963,18.2897833 57.1291022,18.2897833 C58.7229102,18.2897833 59.9498452,17.4891641 60.6752322,16.8510836 L60.6752322,17.3702786 C60.675232,17.5096168 60.7306473,17.6432345 60.8292614,17.7416743 C60.9278754,17.8401141 61.0615909,17.8952931 61.2009288,17.8950464 L65.1696594,17.8950464 C65.4594807,17.8950464 65.6944272,17.6600999 65.6944272,17.3702786 L65.6944272,5.32569659 C65.6944272,5.18651952 65.6391394,5.05304278 65.5407263,4.95462972 C65.4423133,4.85621667 65.3088365,4.80092797 65.1696594,4.80092797 Z" id="Path" fill="#F68B24"></path>
                <path d="M21.5916409,11.7603715 C23.6182663,10.3504644 24.1513932,8.30247678 24.1513932,6.61393189 C24.1395016,6.135961 24.0772378,5.66057674 23.9656347,5.19566563 C23.9109777,4.95719127 23.6985271,4.78831039 23.45387,4.78885449 L19.4442724,4.78885449 C19.2881232,4.78861632 19.1400084,4.85805139 19.0403092,4.97822928 C18.9406101,5.09840718 18.899722,5.25679719 18.9287926,5.41021672 C19.1345986,6.43991876 19.1104954,7.50236243 18.8582043,8.52167183 C18.4123839,10.2613003 16.8557276,10.1210526 16.8557276,10.1210526 L16.8557276,10.1210526 L16.8557276,0.524767802 C16.8557276,0.234946548 16.620781,0 16.3309598,0 L12.3724458,0 C12.0826246,0 11.847678,0.234946548 11.847678,0.524767802 L11.847678,17.3526316 C11.847678,17.6424528 12.0826246,17.8773994 12.3724458,17.8773994 L16.3309598,17.8773994 C16.620781,17.8773994 16.8557276,17.6424528 16.8557276,17.3526316 L16.8557276,13.3160991 L16.8557276,13.3160991 C16.8557276,13.3160991 16.9643963,13.3160991 17.1631579,13.298452 L20.0721362,17.6452012 C20.1692717,17.7908042 20.3327099,17.8783282 20.5077399,17.8783282 L24.7281734,17.8783282 C24.9218725,17.8783282 25.0998751,17.7718158 25.1912091,17.6010017 C25.2825431,17.4301877 25.2723546,17.2229509 25.1647059,17.0619195 L21.5916409,11.7603715 Z" id="Path" fill="#F68B24"></path>
                <path d="M7.28637771,10.1377709 C6.48204334,9.7374613 5.27368421,9.35758514 5.42879257,8.55882353 C5.54024768,7.98018576 6.1003096,7.93003096 6.50154799,7.93003096 C6.93622291,7.93003096 8.0619195,8.24489164 8.71857585,8.43993808 C8.99426476,8.52303279 9.28517213,8.36718955 9.36873065,8.09164087 L10.0551084,5.8495356 C10.1315776,5.59756376 10.0091151,5.32798729 9.76904025,5.21981424 C9.11888545,4.9244582 7.76006192,4.4126935 6.22662539,4.4126935 C2.46408669,4.4126935 0.417956656,6.45603715 0.417956656,8.67585139 C0.417956656,10.8120743 2.5625387,11.8578947 3.78575851,12.4941176 C5.22631579,13.2436533 5.58575851,13.5157895 5.55882353,13.9996904 C5.5244582,14.6126935 5.06006192,14.7650155 4.58359133,14.7650155 C3.73467492,14.7650155 2.20866873,14.2597523 1.42012384,13.9764706 C1.28778278,13.9289737 1.14188996,13.9367747 1.01536842,13.9981132 C0.888846877,14.0594517 0.792358711,14.1691586 0.747678019,14.3024768 L0.0297213622,16.4517028 C-0.0497908186,16.690904 0.0529951805,16.9527543 0.273993808,17.0739938 C1.02631579,17.476161 2.7993808,18.2944272 4.80650155,18.2944272 C9.42910217,18.2944272 10.4470588,15.8897833 10.4470588,14.2077399 C10.4470588,11.8337461 8.53931889,10.7582043 7.28637771,10.1377709 Z" id="Path" fill="#F68B24"></path>
                <path d="M35.323839,4.42198142 C35.220743,4.4126935 35.1157895,4.40804954 35.0108359,4.40804954 C34.8455108,4.40804954 33.0678019,4.3003096 31.3170279,5.83839009 L31.3170279,5.30526316 C31.3170279,5.0154419 31.0820813,4.78049536 30.7922601,4.78049536 L26.8226006,4.78049536 C26.5327794,4.78049536 26.2978328,5.0154419 26.2978328,5.30526316 L26.2978328,17.373065 C26.2978328,17.6628863 26.5327794,17.8978328 26.8226006,17.8978328 L30.7922601,17.8978328 C31.0820813,17.8978328 31.3170279,17.6628863 31.3170279,17.373065 L31.3170279,10.7377709 C31.3170279,9.7625387 32.3972136,9.19411765 33.3770898,9.19411765 C34.1303406,9.19411765 34.8854489,9.50804954 35.0043344,9.55541796 L35.0739938,9.58421053 C35.2358958,9.65119402 35.4205474,9.63295625 35.5662173,9.53559432 C35.7118871,9.43823239 35.7993825,9.27459225 35.7993825,9.0993808 L35.7993825,4.94489164 C35.8000548,4.67379666 35.5937802,4.44697524 35.323839,4.42198142 Z" id="Path" fill="#F68B24"></path>
                <path d="M49.5343653,29.203096 C49.1925697,29.6331269 48.4448916,29.9377709 47.6851393,29.9377709 C46.7739938,29.9377709 45.5832817,29.3173375 45.5832817,27.9241486 C45.5832817,26.404644 46.7739938,26.0368421 47.6851393,26.0368421 C48.4829721,26.0368421 49.2055728,26.2904025 49.5343653,26.7083591 L49.5343653,26.0117647 C49.5343653,25.580805 49.1414861,25.2687307 48.3947368,25.2687307 C47.8694605,25.2740552 47.3556148,25.4227493 46.9086687,25.6987616 C46.8517225,25.7334417 46.7830063,25.7431356 46.7186886,25.7255625 C46.6543709,25.7079894 46.6001308,25.6647008 46.5687307,25.6058824 L46.0272446,24.6204334 C45.9675078,24.5108776 45.9999473,24.3739108 46.1024768,24.3027864 C46.9068111,23.7455108 47.9526316,23.5105263 48.8126935,23.5105263 C50.3321981,23.5105263 51.8498452,24.0427245 51.8498452,26.0814241 L51.8498452,29.5068111 C51.8498452,29.6406932 51.7413124,29.749226 51.6074303,29.749226 L49.7767802,29.749226 C49.7124878,29.749226 49.6508286,29.7236859 49.605367,29.6782243 C49.5599054,29.6327627 49.5343653,29.5711036 49.5343653,29.5068111 L49.5343653,29.203096 Z M49.5343665,27.7987616 C49.5344328,27.7894218 49.5315029,27.7803067 49.5260062,27.7727554 C49.3681115,27.5656347 48.9835913,27.4551084 48.6352941,27.4551084 C48.255418,27.4551084 47.8374613,27.5823529 47.8374613,27.9622291 C47.8374613,28.3421053 48.255418,28.455418 48.6352941,28.455418 C48.9835913,28.455418 49.3681115,28.3458204 49.5260062,28.1386997 C49.5314103,28.130753 49.5343207,28.1213747 49.5343665,28.1117647 L49.5343665,27.7987616 Z" id="Shape" fill="#363636"></path>
                <path d="M61.9040248,23.6990712 L61.0551084,23.6990712 L61.0551084,22.7396285 C61.0548625,22.6753359 61.0290863,22.6137743 60.9834505,22.5684868 C60.9378146,22.5231993 60.8760573,22.4978956 60.8117647,22.4981406 L58.9801858,22.4981406 C58.8463037,22.4981406 58.7377709,22.6066752 58.7377709,22.7405573 L58.7377709,23.6990712 L58.0532508,23.6990712 C57.9193687,23.6990712 57.8108359,23.807604 57.8108359,23.9414861 L57.8108359,25.1637771 C57.8108359,25.2280695 57.836376,25.2897287 57.8818376,25.3351903 C57.9272992,25.3806519 57.9889584,25.406192 58.0532508,25.406192 L58.7377709,25.406192 L58.7377709,27.998452 C58.7377709,29.2866873 59.4900929,29.9377709 60.855418,29.9377709 C61.2361328,29.9329151 61.6145764,29.8782718 61.9811146,29.7752322 C62.0797359,29.7421528 62.1462598,29.6498416 62.1464396,29.5458204 L62.1464396,28.2455108 L62.1464396,28.2455108 C62.1521907,28.1704127 62.1199456,28.0974257 62.0605535,28.0511074 C62.0011615,28.0047891 61.9225179,27.9912968 61.8510836,28.0151703 C61.7494389,28.0326371 61.6467263,28.0431877 61.5436533,28.0467492 C61.1972136,28.0467492 61.0551084,27.84613 61.0551084,27.5275542 L61.0551084,25.406192 L61.9040248,25.406192 C62.0379068,25.406192 62.1464396,25.2976591 62.1464396,25.1637771 L62.1464396,23.9414861 C62.1464396,23.807604 62.0379068,23.6990712 61.9040248,23.6990712 Z" id="Path" fill="#363636"></path>
                <rect id="Rectangle" fill="#363636" x="42.5526316" y="21.4885449" width="2.31547988" height="8.26718266" rx="0.242414861"></rect>
                <path d="M55.9077399,26.176161 C55.5362229,25.9904025 54.9789474,25.8148607 55.0486068,25.4433437 C55.0996904,25.1758514 55.3588235,25.1526316 55.544582,25.1526316 C55.7452012,25.1526316 56.2653251,25.298452 56.5662539,25.3885449 C56.6934175,25.4265186 56.8273951,25.3547598 56.8662539,25.2278638 L57.1894737,24.1913313 C57.2255323,24.0752582 57.1693417,23.950523 57.0585139,23.9006192 C56.5434919,23.6661743 55.9858968,23.5397355 55.4201238,23.5291022 C53.6795666,23.5291022 52.7340557,24.474613 52.7340557,25.5009288 C52.7340557,26.4891641 53.7250774,26.9721362 54.2907121,27.2656347 C54.9575851,27.6120743 55.1266254,27.7374613 55.1108359,27.9613003 C55.0950464,28.244582 54.8804954,28.3151703 54.6603715,28.3151703 C54.2674923,28.3151703 53.5606811,28.0811146 53.1965944,27.9501548 C53.1354197,27.9280909 53.0679182,27.9317352 53.0094745,27.9602571 C52.9510308,27.988779 52.9066249,28.0397482 52.8863777,28.101548 L52.5547988,29.095356 C52.5168692,29.2066285 52.5652606,29.3289838 52.6690402,29.3842105 C53.0164087,29.569969 53.8365325,29.9489164 54.7643963,29.9489164 C56.9006192,29.9489164 57.3724458,28.8343653 57.3724458,28.0578947 C57.3687307,26.9609907 56.4863777,26.4650155 55.9077399,26.176161 Z" id="Path" fill="#363636"></path>
                <rect id="Rectangle" fill="#363636" x="79.6458204" y="21.4783282" width="2.31547988" height="8.26625387" rx="0.242414861"></rect>
                <path d="M85.8891641,23.5068111 C87.6873065,23.5068111 89.067494,24.7987616 89.067494,26.950774 L89.067494,27.1764706 C89.0677392,27.2409238 89.0423082,27.3028218 88.9968198,27.3484845 C88.9513314,27.3941472 88.8895311,27.4198147 88.8250774,27.4198142 L84.9139319,27.4198142 C85.0402477,27.8117647 85.4832817,28.1721362 86.2560372,28.1721362 C86.6715642,28.1747645 87.081493,28.0762668 87.4504644,27.8851393 C87.5607226,27.8232161 87.7000798,27.8568401 87.769969,27.9622291 L88.44613,28.9764706 C88.4819221,29.0304823 88.4946955,29.0965382 88.4816197,29.1599997 C88.4685438,29.2234612 88.4306985,29.2790874 88.3764706,29.3145511 C87.7486068,29.7315789 86.7854489,29.9266254 85.9616099,29.9266254 C84.0501548,29.9266254 82.5557276,28.723839 82.5557276,26.7102167 C82.5585139,24.9380805 83.9136223,23.5068111 85.8891641,23.5068111 Z M85.0226006,25.9755418 L87.0362229,25.9755418 C86.973065,25.7099071 86.7575851,25.1256966 86.0229102,25.1256966 C85.325387,25.1256966 85.0978328,25.6978328 85.0216718,25.9755418 L85.0226006,25.9755418 Z" id="Shape" fill="#363636"></path>
                <rect id="Rectangle" fill="#363636" x="76.3634675" y="23.6981424" width="2.31547988" height="6.04643963" rx="0.242414861"></rect>
                <path d="M76.5352941,22.9058824 C76.2705882,22.6458204 76.2148607,22.2798762 76.2148607,22.0188854 C76.2148607,21.5452012 76.3894737,21.2758514 76.5352941,21.1318885 C76.7609907,20.9117647 77.1018576,20.7956656 77.5216718,20.7956656 C77.9414861,20.7956656 78.2814241,20.9117647 78.5071207,21.1318885 C78.7727554,21.3910217 78.828483,21.7569659 78.828483,22.0188854 C78.828483,22.4925697 78.65387,22.7619195 78.5071207,22.9058824 C78.2814241,23.1260062 77.9405573,23.2421053 77.5216718,23.2421053 C77.1027864,23.2421053 76.7609907,23.1260062 76.5352941,22.9058824 Z" id="Path" fill="#363636"></path>
                <path d="M73.0718266,26.0758514 C73.0718266,25.7099071 72.9065015,25.3950464 72.4021672,25.3950464 C71.8978328,25.3950464 71.6526316,25.7294118 71.5012384,25.9058824 L71.5012384,29.503096 C71.5012384,29.636978 71.3927056,29.7455126 71.2588235,29.7455126 L69.425387,29.7455126 C69.291505,29.7455126 69.1829721,29.636978 69.1829721,29.503096 L69.1829721,26.0758514 C69.1829721,25.7099071 69.026935,25.3950464 68.5105263,25.3950464 C68.0182663,25.3950464 67.7925697,25.696904 67.6411765,25.8733746 L67.6411765,29.503096 C67.6411765,29.636978 67.5326436,29.7455126 67.3987616,29.7455126 L65.5643963,29.7455126 C65.4999431,29.7457578 65.438045,29.7203268 65.3923824,29.6748384 C65.3467197,29.62935 65.3210526,29.5675496 65.3210526,29.503096 L65.3210526,23.9414861 C65.3210526,23.8770324 65.3467197,23.8152321 65.3923824,23.7697437 C65.438045,23.7242553 65.4999431,23.6988243 65.5643963,23.6990712 L67.3978328,23.6990712 C67.5322278,23.6990712 67.6411765,23.8080199 67.6411765,23.9424149 L67.6411765,24.3510836 C67.9058824,24.0102167 68.623839,23.5068111 69.6065015,23.5068111 C70.4637771,23.5068111 71.0814241,23.8216718 71.3582043,24.577709 C71.7111455,24.0482972 72.5052632,23.5068111 73.4888545,23.5068111 C74.6108359,23.5068111 75.3965944,24.0733746 75.3965944,25.3337461 L75.3965944,29.503096 C75.3965944,29.636978 75.2880616,29.7455126 75.1541796,29.7455126 L73.3170279,29.7455126 C73.1831458,29.7455126 73.074613,29.636978 73.074613,29.503096 L73.0718266,26.0758514 Z" id="Path" fill="#363636"></path>
            </g>
        </g>
    </g>
</svg>